<svg width="166" height="90" viewBox="0 0 166 90" fill="none" xmlns="http://www.w3.org/2000/svg">
<path d="M66.7863 79.4465V77.1442H95.3351V79.4465H66.7863ZM66.7863 84.5116V82.2093H95.3351V84.5116H66.7863Z" fill="white"/>
<circle cx="125.781" cy="40.2879" r="39.2215" fill="white" stroke="black"/>
<path d="M146.583 40.9158C146.583 38.0507 146.081 35.3646 145.078 32.8577C144.111 30.3149 142.715 28.0944 140.888 26.1963C139.062 24.2981 136.877 22.8119 134.334 21.7374C131.791 20.663 128.944 20.1258 125.793 20.1258C122.641 20.1258 119.794 20.663 117.251 21.7374C114.708 22.8119 112.524 24.2981 110.697 26.1963C108.871 28.0944 107.456 30.3149 106.453 32.8577C105.486 35.3646 105.003 38.0507 105.003 40.9158C105.003 43.7809 105.486 46.4849 106.453 49.0277C107.456 51.5346 108.871 53.7372 110.697 55.6353C112.524 57.5335 114.708 59.0197 117.251 60.0942C119.794 61.1686 122.641 61.7058 125.793 61.7058C128.944 61.7058 131.791 61.1686 134.334 60.0942C136.877 59.0197 139.062 57.5335 140.888 55.6353C142.715 53.7372 144.111 51.5346 145.078 49.0277C146.081 46.4849 146.583 43.7809 146.583 40.9158ZM143.037 40.9158C143.037 37.7284 142.339 34.8453 140.942 32.2667C139.545 29.6523 137.557 27.5751 134.979 26.0351C132.4 24.4951 129.338 23.7251 125.793 23.7251C122.283 23.7251 119.221 24.4951 116.606 26.0351C114.028 27.5751 112.04 29.6523 110.643 32.2667C109.247 34.8453 108.548 37.7284 108.548 40.9158C108.548 44.0674 109.247 46.9504 110.643 49.5649C112.04 52.1793 114.028 54.2565 116.606 55.7965C119.221 57.3365 122.283 58.1065 125.793 58.1065C129.338 58.1065 132.4 57.3365 134.979 55.7965C137.557 54.2565 139.545 52.1793 140.942 49.5649C142.339 46.9504 143.037 44.0674 143.037 40.9158ZM139.491 40.9158C139.491 38.4088 138.954 36.1346 137.88 34.0932C136.805 32.016 135.247 30.3686 133.206 29.1509C131.165 27.8974 128.694 27.2707 125.793 27.2707C122.927 27.2707 120.456 27.8974 118.379 29.1509C116.338 30.3686 114.78 32.016 113.705 34.0932C112.631 36.1346 112.094 38.4088 112.094 40.9158C112.094 43.4228 112.631 45.7149 113.705 47.7921C114.78 49.8335 116.338 51.4809 118.379 52.7344C120.456 53.9521 122.927 54.5609 125.793 54.5609C128.694 54.5609 131.165 53.9521 133.206 52.7344C135.247 51.4809 136.805 49.8335 137.88 47.7921C138.954 45.7149 139.491 43.4228 139.491 40.9158ZM125.793 56.2263C122.605 56.2263 119.865 55.5458 117.573 54.1849C115.281 52.7881 113.526 50.9258 112.309 48.5979C111.091 46.27 110.482 43.7093 110.482 40.9158C110.482 38.0865 111.091 35.5258 112.309 33.2337C113.526 30.9058 115.281 29.0614 117.573 27.7005C119.865 26.3037 122.605 25.6053 125.793 25.6053C128.98 25.6053 131.72 26.3037 134.012 27.7005C136.304 29.0614 138.059 30.9058 139.277 33.2337C140.494 35.5258 141.103 38.0865 141.103 40.9158C141.103 43.7093 140.494 46.27 139.277 48.5979C138.059 50.9258 136.304 52.7881 134.012 54.1849C131.72 55.5458 128.98 56.2263 125.793 56.2263ZM125.793 59.7718C122.927 59.7718 120.331 59.2883 118.003 58.3214C115.711 57.3186 113.723 55.9576 112.04 54.2386C110.393 52.5195 109.121 50.5318 108.226 48.2756C107.366 45.9835 106.937 43.5302 106.937 40.9158C106.937 38.3014 107.366 35.866 108.226 33.6098C109.121 31.3177 110.393 29.3121 112.04 27.593C113.723 25.8381 115.711 24.4772 118.003 23.5102C120.331 22.5433 122.927 22.0598 125.793 22.0598C128.658 22.0598 131.236 22.5433 133.528 23.5102C135.856 24.4772 137.844 25.8381 139.491 27.593C141.175 29.3121 142.446 31.3177 143.306 33.6098C144.201 35.866 144.649 38.3014 144.649 40.9158C144.649 43.5302 144.201 45.9835 143.306 48.2756C142.446 50.5318 141.175 52.5195 139.491 54.2386C137.844 55.9576 135.856 57.3186 133.528 58.3214C131.236 59.2883 128.658 59.7718 125.793 59.7718ZM125.793 63.3174C122.426 63.3174 119.364 62.7444 116.606 61.5983C113.884 60.4165 111.539 58.8049 109.569 56.7635C107.599 54.7221 106.077 52.3583 105.003 49.6723C103.928 46.9504 103.391 44.0316 103.391 40.9158C103.391 37.8 103.928 34.8991 105.003 32.213C106.077 29.4912 107.599 27.1095 109.569 25.0681C111.539 23.0267 113.884 21.433 116.606 20.287C119.364 19.1051 122.426 18.5142 125.793 18.5142C129.159 18.5142 132.203 19.1051 134.925 20.287C137.683 21.433 140.047 23.0267 142.016 25.0681C143.986 27.1095 145.508 29.4912 146.583 32.213C147.657 34.8991 148.194 37.8 148.194 40.9158C148.194 44.0316 147.657 46.9504 146.583 49.6723C145.508 52.3583 143.986 54.7221 142.016 56.7635C140.047 58.8049 137.683 60.4165 134.925 61.5983C132.203 62.7444 129.159 63.3174 125.793 63.3174Z" fill="black"/>
<circle cx="40.2209" cy="40.2893" r="38.7636" fill="black" stroke="white" stroke-width="1.9186"/>
<path d="M39.4738 63.3174C36.1431 63.3174 33.26 62.6011 30.8247 61.1686C28.4252 59.7002 26.5628 57.7304 25.2377 55.2593C23.9484 52.7881 23.3038 50.0663 23.3038 47.0937V45.9656H24.9154V47.0937C24.9154 49.7797 25.4884 52.233 26.6345 54.4535C27.8163 56.6739 29.4817 58.4467 31.6305 59.7718C33.8152 61.0611 36.4296 61.7058 39.4738 61.7058C42.5179 61.7058 45.1145 61.0611 47.2633 59.7718C49.4479 58.4467 51.1133 56.6739 52.2593 54.4535C53.4412 52.233 54.0321 49.7797 54.0321 47.0937V19.32H55.6437V47.0937C55.6437 50.0663 54.9812 52.7881 53.6561 55.2593C52.3668 57.7304 50.5224 59.7002 48.1228 61.1686C45.7233 62.6011 42.8403 63.3174 39.4738 63.3174ZM39.4738 56.2263C37.4324 56.2263 35.7312 55.8144 34.3703 54.9907C33.0452 54.167 32.0424 53.0746 31.3619 51.7137C30.7173 50.317 30.3949 48.777 30.3949 47.0937V45.9656H32.0066V47.0937C32.0066 49.1709 32.5975 50.9437 33.7793 52.4121C34.9612 53.8804 36.8593 54.6146 39.4738 54.6146C42.0882 54.6146 43.9863 53.8804 45.1682 52.4121C46.35 50.9437 46.941 49.1709 46.941 47.0937V19.32H48.5526V47.0937C48.5526 48.777 48.2124 50.317 47.5319 51.7137C46.8872 53.0746 45.8845 54.167 44.5235 54.9907C43.1984 55.8144 41.5152 56.2263 39.4738 56.2263ZM39.4738 59.7718C36.7877 59.7718 34.4956 59.1988 32.5975 58.0528C30.7352 56.9067 29.3026 55.3846 28.2998 53.4865C27.3328 51.5525 26.8494 49.4216 26.8494 47.0937V45.9656H28.461V47.0937C28.461 49.1351 28.8728 50.9974 29.6966 52.6807C30.5561 54.3281 31.8096 55.6532 33.457 56.656C35.1045 57.6588 37.11 58.1602 39.4738 58.1602C41.8733 58.1602 43.8789 57.6588 45.4905 56.656C47.1379 55.6532 48.3735 54.3281 49.1972 52.6807C50.0568 50.9974 50.4865 49.1351 50.4865 47.0937V19.32H52.0982V47.0937C52.0982 49.4216 51.5968 51.5525 50.594 53.4865C49.627 55.3846 48.1944 56.9067 46.2963 58.0528C44.434 59.1988 42.1598 59.7718 39.4738 59.7718Z" fill="white"/>
</svg>
