<svg width="113" height="62" viewBox="0 0 113 62" fill="none" xmlns="http://www.w3.org/2000/svg">
<path d="M45.4864 54.8884V53.316H64.9841V54.8884H45.4864ZM45.4864 58.3477V56.7753H64.9841V58.3477H45.4864Z" fill="black"/>
<circle cx="85.7767" cy="28.0003" r="27.1282" fill="black"/>
<path d="M99.9837 28.5981C99.9837 26.6413 99.6413 24.8069 98.9564 23.0947C98.296 21.3581 97.3421 19.8416 96.0946 18.5452C94.8472 17.2489 93.3552 16.2338 91.6185 15.5C89.8819 14.7662 87.9374 14.3993 85.7849 14.3993C83.6325 14.3993 81.688 14.7662 79.9513 15.5C78.2147 16.2338 76.7227 17.2489 75.4753 18.5452C74.2278 19.8416 73.2617 21.3581 72.5768 23.0947C71.9164 24.8069 71.5862 26.6413 71.5862 28.5981C71.5862 30.5548 71.9164 32.4015 72.5768 34.1382C73.2617 35.8503 74.2278 37.3546 75.4753 38.6509C76.7227 39.9473 78.2147 40.9624 79.9513 41.6962C81.688 42.4299 83.6325 42.7968 85.7849 42.7968C87.9374 42.7968 89.8819 42.4299 91.6185 41.6962C93.3552 40.9624 94.8472 39.9473 96.0946 38.6509C97.3421 37.3546 98.296 35.8503 98.9564 34.1382C99.6413 32.4015 99.9837 30.5548 99.9837 28.5981ZM97.5622 28.5981C97.5622 26.4212 97.0852 24.4522 96.1313 22.6911C95.1774 20.9056 93.8199 19.4869 92.0588 18.4352C90.2977 17.3834 88.2064 16.8575 85.7849 16.8575C83.3879 16.8575 81.2966 17.3834 79.5111 18.4352C77.75 19.4869 76.3925 20.9056 75.4386 22.6911C74.4846 24.4522 74.0077 26.4212 74.0077 28.5981C74.0077 30.7505 74.4846 32.7195 75.4386 34.5051C76.3925 36.2906 77.75 37.7092 79.5111 38.761C81.2966 39.8128 83.3879 40.3386 85.7849 40.3386C88.2064 40.3386 90.2977 39.8128 92.0588 38.761C93.8199 37.7092 95.1774 36.2906 96.1313 34.5051C97.0852 32.7195 97.5622 30.7505 97.5622 28.5981ZM95.1407 28.5981C95.1407 26.8859 94.7738 25.3327 94.04 23.9385C93.3062 22.5199 92.2422 21.3948 90.8481 20.5631C89.4539 19.707 87.7662 19.279 85.7849 19.279C83.8282 19.279 82.1405 19.707 80.7218 20.5631C79.3276 21.3948 78.2636 22.5199 77.5298 23.9385C76.7961 25.3327 76.4292 26.8859 76.4292 28.5981C76.4292 30.3102 76.7961 31.8757 77.5298 33.2943C78.2636 34.6885 79.3276 35.8136 80.7218 36.6697C82.1405 37.5013 83.8282 37.9172 85.7849 37.9172C87.7662 37.9172 89.4539 37.5013 90.8481 36.6697C92.2422 35.8136 93.3062 34.6885 94.04 33.2943C94.7738 31.8757 95.1407 30.3102 95.1407 28.5981ZM85.7849 39.0545C83.608 39.0545 81.7369 38.5898 80.1715 37.6603C78.6061 36.7064 77.4076 35.4345 76.5759 33.8446C75.7443 32.2548 75.3285 30.5059 75.3285 28.5981C75.3285 26.6658 75.7443 24.9169 76.5759 23.3515C77.4076 21.7616 78.6061 20.502 80.1715 19.5725C81.7369 18.6186 83.608 18.1416 85.7849 18.1416C87.9618 18.1416 89.833 18.6186 91.3984 19.5725C92.9638 20.502 94.1623 21.7616 94.9939 23.3515C95.8256 24.9169 96.2414 26.6658 96.2414 28.5981C96.2414 30.5059 95.8256 32.2548 94.9939 33.8446C94.1623 35.4345 92.9638 36.7064 91.3984 37.6603C89.833 38.5898 87.9618 39.0545 85.7849 39.0545ZM85.7849 41.476C83.8282 41.476 82.0549 41.1458 80.465 40.4854C78.8996 39.8005 77.5421 38.8711 76.3925 37.697C75.2673 36.523 74.399 35.1655 73.7875 33.6245C73.2005 32.0591 72.907 30.3836 72.907 28.5981C72.907 26.8125 73.2005 25.1493 73.7875 23.6083C74.399 22.0429 75.2673 20.6732 76.3925 19.4991C77.5421 18.3006 78.8996 17.3712 80.465 16.7108C82.0549 16.0503 83.8282 15.7201 85.7849 15.7201C87.7417 15.7201 89.5028 16.0503 91.0682 16.7108C92.6581 17.3712 94.0156 18.3006 95.1407 19.4991C96.2903 20.6732 97.1586 22.0429 97.7456 23.6083C98.3571 25.1493 98.6629 26.8125 98.6629 28.5981C98.6629 30.3836 98.3571 32.0591 97.7456 33.6245C97.1586 35.1655 96.2903 36.523 95.1407 37.697C94.0156 38.8711 92.6581 39.8005 91.0682 40.4854C89.5028 41.1458 87.7417 41.476 85.7849 41.476ZM85.7849 43.8975C83.4857 43.8975 81.3945 43.5062 79.5111 42.7235C77.6521 41.9163 76.05 40.8156 74.7048 39.4214C73.3595 38.0272 72.32 36.4129 71.5862 34.5784C70.8524 32.7195 70.4855 30.7261 70.4855 28.5981C70.4855 26.4701 70.8524 24.4889 71.5862 22.6544C72.32 20.7955 73.3595 19.1689 74.7048 17.7747C76.05 16.3806 77.6521 15.2921 79.5111 14.5094C81.3945 13.7022 83.4857 13.2987 85.7849 13.2987C88.0841 13.2987 90.1632 13.7022 92.0221 14.5094C93.9055 15.2921 95.5198 16.3806 96.8651 17.7747C98.2104 19.1689 99.2499 20.7955 99.9837 22.6544C100.717 24.4889 101.084 26.4701 101.084 28.5981C101.084 30.7261 100.717 32.7195 99.9837 34.5784C99.2499 36.4129 98.2104 38.0272 96.8651 39.4214C95.5198 40.8156 93.9055 41.9163 92.0221 42.7235C90.1632 43.5062 88.0841 43.8975 85.7849 43.8975Z" fill="white"/>
<circle cx="27.3431" cy="28.0013" r="26.1292" fill="white" stroke="black" stroke-width="2"/>
<path d="M26.8336 43.8975C24.5588 43.8975 22.5898 43.4083 20.9266 42.4299C19.2878 41.4271 18.0159 40.0818 17.1109 38.3941C16.2304 36.7064 15.7901 34.8475 15.7901 32.8173V32.0469H16.8908V32.8173C16.8908 34.6518 17.2821 36.3273 18.0648 37.8438C18.872 39.3603 20.0094 40.571 21.4769 41.476C22.969 42.3566 24.7545 42.7968 26.8336 42.7968C28.9126 42.7968 30.6859 42.3566 32.1535 41.476C33.6455 40.571 34.7829 39.3603 35.5656 37.8438C36.3728 36.3273 36.7764 34.6518 36.7764 32.8173V13.849H37.877V32.8173C37.877 34.8475 37.4245 36.7064 36.5195 38.3941C35.639 40.0818 34.3793 41.4271 32.7405 42.4299C31.1018 43.4083 29.1328 43.8975 26.8336 43.8975ZM26.8336 39.0545C25.4394 39.0545 24.2776 38.7732 23.3481 38.2107C22.4431 37.6481 21.7582 36.9021 21.2935 35.9726C20.8532 35.0187 20.6331 33.9669 20.6331 32.8173V32.0469H21.7338V32.8173C21.7338 34.236 22.1373 35.4467 22.9445 36.4496C23.7517 37.4524 25.048 37.9538 26.8336 37.9538C28.6191 37.9538 29.9155 37.4524 30.7226 36.4496C31.5298 35.4467 31.9334 34.236 31.9334 32.8173V13.849H33.0341V32.8173C33.0341 33.9669 32.8017 35.0187 32.337 35.9726C31.8967 36.9021 31.2118 37.6481 30.2824 38.2107C29.3774 38.7732 28.2278 39.0545 26.8336 39.0545ZM26.8336 41.476C24.9991 41.476 23.4337 41.0847 22.1373 40.302C20.8655 39.5193 19.8871 38.4797 19.2022 37.1834C18.5418 35.8626 18.2116 34.4072 18.2116 32.8173V32.0469H19.3123V32.8173C19.3123 34.2115 19.5936 35.4834 20.1561 36.633C20.7432 37.7582 21.5992 38.6632 22.7244 39.348C23.8495 40.0329 25.2192 40.3753 26.8336 40.3753C28.4724 40.3753 29.8421 40.0329 30.9428 39.348C32.0679 38.6632 32.9118 37.7582 33.4743 36.633C34.0614 35.4834 34.3549 34.2115 34.3549 32.8173V13.849H35.4556V32.8173C35.4556 34.4072 35.1131 35.8626 34.4283 37.1834C33.7678 38.4797 32.7895 39.5193 31.4931 40.302C30.2212 41.0847 28.668 41.476 26.8336 41.476Z" fill="black"/>
</svg>
